<svg xmlns="http://www.w3.org/2000/svg" width="36" height="56" viewBox="0 0 36 56" class="dd-glyph-svg dd-glyph-elevated" aria-hidden="true">
  <path d="m0 0h36v56h-36z" fill="none"/>
  <path d="m33.4019 16.719-13-7.1197c-.7481-.4098-1.575-.6146-2.4019-.6146s-1.6538.2048-2.4019.6146l-13 7.1197c-1.602.8774-2.5981 2.5587-2.5981 4.3854v13.7913c0 1.8267.9961 3.5079 2.5981 4.3854l13 7.1197c.748.4097 1.575.6146 2.4019.6146s1.6538-.2049 2.4019-.6146l13-7.1197c1.602-.8775 2.5981-2.5588 2.5981-4.3855v-13.7912c0-1.8267-.9961-3.508-2.5981-4.3854zm-16.8431-5.3655c.4404-.2413.939-.3688 1.4412-.3688s1.0007.1275 1.4412.3688l13 7.1196c.1169.064.21.1554.3157.2329l-6.1394 3.5058-14.8081-8.2572zm.4412 33.4669c-.1492-.0531-.3018-.0975-.4412-.1738l-13-7.1197c-.9614-.5267-1.5588-1.5349-1.5588-2.6313v-13.7912c0-.2562.0391-.506.1013-.7476l14.8987 8.5077zm-13.7568-26.1143c.1057-.0775.1987-.1689.3157-.2329l6.1782-3.3836 14.8511 8.2811-6.5882 3.7621zm30.7568 16.1895c0 1.0964-.5974 2.1046-1.5588 2.6312l-13 7.1197c-.1394.0763-.292.1208-.4412.1739v-15.9559l14.8987-8.5077c.0622.2416.1013.4913.1013.7476z"/>
</svg>